<svg xmlns="http://www.w3.org/2000/svg" viewBox="-20 -10 280 220">
  <!-- Background -->
  <rect x="-20" y="-10" width="280" height="220" fill="#f8fafc"/>

  <!-- Square with shaded region -->
  <path d="M 40 40 L 160 40 L 160 160 L 40 160 Z" fill="#fecaca" stroke="none"/>
  <path d="M 40 40 L 40 160 A 120 120 0 0 0 160 40 L 40 40 Z" fill="#f8fafc" stroke="none"/>

  <!-- Quarter circle arc -->
  <path d="M 40 160 A 120 120 0 0 0 160 40" fill="none" stroke="#dc2626" stroke-width="2"/>

  <!-- Square edges (all 4 sides) -->
  <line x1="40" y1="40" x2="160" y2="40" stroke="#334155" stroke-width="2"/>
  <line x1="160" y1="40" x2="160" y2="160" stroke="#334155" stroke-width="2"/>
  <line x1="160" y1="160" x2="40" y2="160" stroke="#334155" stroke-width="2"/>
  <line x1="40" y1="160" x2="40" y2="40" stroke="#334155" stroke-width="2"/>

  <!-- Right angle marker -->
  <path d="M 52 40 L 52 52 L 40 52" fill="none" stroke="#334155" stroke-width="1.5"/>

  <!-- Center point -->
  <circle cx="40" cy="40" r="3" fill="#dc2626"/>

  <!-- Dimensions -->
  <text x="100" y="32" text-anchor="middle" font-size="12" fill="#334155" font-weight="bold">10 cm</text>
  <line x1="175" y1="40" x2="175" y2="160" stroke="#334155" stroke-width="1"/>
  <polygon points="175,40 172,47 178,47" fill="#334155"/>
  <polygon points="175,160 172,153 178,153" fill="#334155"/>
  <text x="200" y="105" font-size="12" fill="#334155" font-weight="bold">10 cm</text>
</svg>
