<svg xmlns="http://www.w3.org/2000/svg" viewBox="0 0 300 300">
  <!-- Background -->
  <rect width="300" height="300" fill="#f8fafc"/>

  <!-- Square with 4 quarter circles in corners (4-point star) -->
  <!-- From PDF page 16 -->

  <!-- Square base -->
  <rect x="50" y="50" width="200" height="200" fill="#a7f3d0" stroke="#059669" stroke-width="2"/>

  <!-- Four quarter circles (removed/white) -->
  <!-- Top-left quarter -->
  <path d="M 50 50 L 50 150 A 100 100 0 0 0 150 50 L 50 50 Z" fill="#f8fafc" stroke="none"/>
  <!-- Top-right quarter -->
  <path d="M 250 50 L 150 50 A 100 100 0 0 0 250 150 L 250 50 Z" fill="#f8fafc" stroke="none"/>
  <!-- Bottom-left quarter -->
  <path d="M 50 250 L 150 250 A 100 100 0 0 0 50 150 L 50 250 Z" fill="#f8fafc" stroke="none"/>
  <!-- Bottom-right quarter -->
  <path d="M 250 250 L 250 150 A 100 100 0 0 0 150 250 L 250 250 Z" fill="#f8fafc" stroke="none"/>

  <!-- Arc outlines -->
  <path d="M 50 150 A 100 100 0 0 0 150 50" fill="none" stroke="#059669" stroke-width="2"/>
  <path d="M 150 50 A 100 100 0 0 0 250 150" fill="none" stroke="#059669" stroke-width="2"/>
  <path d="M 250 150 A 100 100 0 0 0 150 250" fill="none" stroke="#059669" stroke-width="2"/>
  <path d="M 150 250 A 100 100 0 0 0 50 150" fill="none" stroke="#059669" stroke-width="2"/>

  <!-- Dimension -->
  <text x="150" y="285" text-anchor="middle" font-size="14" fill="#334155" font-weight="bold">8 cm</text>

  <!-- Dimension line -->
  <line x1="50" y1="270" x2="250" y2="270" stroke="#334155" stroke-width="1"/>
  <polygon points="50,270 58,266 58,274" fill="#334155"/>
  <polygon points="250,270 242,266 242,274" fill="#334155"/>
</svg>
