<svg viewBox="0 0 400 190" xmlns="http://www.w3.org/2000/svg">
  <!-- Q3: Hafiz 2x Nurul before, 5x after, total 180 -->

  <!-- BEFORE section -->
  <text x="20" y="20" font-family="system-ui, sans-serif" font-size="12" fill="#374151" font-weight="bold">BEFORE:</text>

  <text x="55" y="50" font-family="system-ui, sans-serif" font-size="11" fill="#374151" text-anchor="end">Nurul</text>
  <rect x="65" y="35" width="60" height="28" fill="#93c5fd" stroke="#3b82f6" stroke-width="2" rx="2"/>
  <text x="95" y="54" font-family="system-ui, sans-serif" font-size="10" fill="#374151" text-anchor="middle">1 unit</text>

  <text x="55" y="85" font-family="system-ui, sans-serif" font-size="11" fill="#374151" text-anchor="end">Hafiz</text>
  <rect x="65" y="70" width="60" height="28" fill="#fde047" stroke="#eab308" stroke-width="2" rx="2"/>
  <rect x="125" y="70" width="60" height="28" fill="#fde047" stroke="#eab308" stroke-width="2" rx="2"/>
  <text x="125" y="89" font-family="system-ui, sans-serif" font-size="10" fill="#374151" text-anchor="middle">2 units</text>

  <text x="200" y="65" font-family="system-ui, sans-serif" font-size="10" fill="#6b7280">Total: 180</text>

  <!-- AFTER section -->
  <text x="20" y="120" font-family="system-ui, sans-serif" font-size="12" fill="#374151" font-weight="bold">AFTER borrowing:</text>

  <text x="55" y="150" font-family="system-ui, sans-serif" font-size="11" fill="#374151" text-anchor="end">Nurul</text>
  <rect x="65" y="135" width="40" height="28" fill="#93c5fd" stroke="#3b82f6" stroke-width="2" rx="2"/>
  <text x="85" y="154" font-family="system-ui, sans-serif" font-size="9" fill="#374151" text-anchor="middle">1 unit</text>

  <text x="55" y="185" font-family="system-ui, sans-serif" font-size="11" fill="#374151" text-anchor="end">Hafiz</text>
  <rect x="65" y="170" width="40" height="28" fill="#fde047" stroke="#eab308" stroke-width="2" rx="2"/>
  <rect x="105" y="170" width="40" height="28" fill="#fde047" stroke="#eab308" stroke-width="2" rx="2"/>
  <rect x="145" y="170" width="40" height="28" fill="#fde047" stroke="#eab308" stroke-width="2" rx="2"/>
  <rect x="185" y="170" width="40" height="28" fill="#fde047" stroke="#eab308" stroke-width="2" rx="2"/>
  <rect x="225" y="170" width="40" height="28" fill="#fde047" stroke="#eab308" stroke-width="2" rx="2"/>

  <text x="300" y="150" font-family="system-ui, sans-serif" font-size="10" fill="#6b7280">How many</text>
  <text x="300" y="165" font-family="system-ui, sans-serif" font-size="10" fill="#6b7280">borrowed?</text>
</svg>