<svg viewBox="0 0 400 140" xmlns="http://www.w3.org/2000/svg">
  <!-- Q4: Amy 3x Ben, Chloe 4x Ben. Amy gives 15, Chloe gives 45 to Ben. Amy=Chloe after -->

  <!-- BEFORE section -->
  <text x="20" y="20" font-family="system-ui, sans-serif" font-size="11" fill="#374151" font-weight="bold">BEFORE:</text>

  <text x="45" y="45" font-family="system-ui, sans-serif" font-size="10" fill="#374151" text-anchor="end">Ben</text>
  <rect x="55" y="30" width="35" height="25" fill="#86efac" stroke="#22c55e" stroke-width="2" rx="2"/>
  <text x="72" y="47" font-family="system-ui, sans-serif" font-size="8" fill="#374151" text-anchor="middle">1u</text>

  <text x="45" y="75" font-family="system-ui, sans-serif" font-size="10" fill="#374151" text-anchor="end">Amy</text>
  <rect x="55" y="60" width="35" height="25" fill="#93c5fd" stroke="#3b82f6" stroke-width="2" rx="2"/>
  <rect x="90" y="60" width="35" height="25" fill="#93c5fd" stroke="#3b82f6" stroke-width="2" rx="2"/>
  <rect x="125" y="60" width="35" height="25" fill="#93c5fd" stroke="#3b82f6" stroke-width="2" rx="2"/>
  <text x="107" y="77" font-family="system-ui, sans-serif" font-size="8" fill="#374151" text-anchor="middle">3u</text>

  <text x="45" y="105" font-family="system-ui, sans-serif" font-size="10" fill="#374151" text-anchor="end">Chloe</text>
  <rect x="55" y="90" width="35" height="25" fill="#fde047" stroke="#eab308" stroke-width="2" rx="2"/>
  <rect x="90" y="90" width="35" height="25" fill="#fde047" stroke="#eab308" stroke-width="2" rx="2"/>
  <rect x="125" y="90" width="35" height="25" fill="#fde047" stroke="#eab308" stroke-width="2" rx="2"/>
  <rect x="160" y="90" width="35" height="25" fill="#fde047" stroke="#eab308" stroke-width="2" rx="2"/>
  <text x="125" y="107" font-family="system-ui, sans-serif" font-size="8" fill="#374151" text-anchor="middle">4u</text>

  <!-- Info -->
  <text x="220" y="35" font-family="system-ui, sans-serif" font-size="9" fill="#6b7280">AFTER:</text>
  <text x="220" y="50" font-family="system-ui, sans-serif" font-size="9" fill="#6b7280">Amy gives 15 cards</text>
  <text x="220" y="65" font-family="system-ui, sans-serif" font-size="9" fill="#6b7280">Chloe gives 45 cards</text>
  <text x="220" y="80" font-family="system-ui, sans-serif" font-size="9" fill="#6b7280">→ Amy = Chloe</text>
  <text x="220" y="100" font-family="system-ui, sans-serif" font-size="10" fill="#374151">How many did</text>
  <text x="220" y="115" font-family="system-ui, sans-serif" font-size="10" fill="#374151">Chloe have first?</text>
</svg>