<svg viewBox="0 0 400 170" xmlns="http://www.w3.org/2000/svg">
  <!-- Q4: Cinema visitors. Mon-Thu known. Fri=2×Sat, Sat=2×Sun. Total 7600 -->

  <!-- Mon-Thu bar -->
  <text x="20" y="20" font-family="system-ui, sans-serif" font-size="11" fill="#374151" font-weight="bold">Mon-Thu: Known visitors</text>

  <rect x="30" y="30" width="40" height="25" fill="#d1d5db" stroke="#6b7280" stroke-width="2" rx="2"/>
  <text x="50" y="47" font-family="system-ui, sans-serif" font-size="8" fill="#374151" text-anchor="middle">450</text>

  <rect x="72" y="30" width="40" height="25" fill="#d1d5db" stroke="#6b7280" stroke-width="2" rx="2"/>
  <text x="92" y="47" font-family="system-ui, sans-serif" font-size="8" fill="#374151" text-anchor="middle">380</text>

  <rect x="114" y="30" width="40" height="25" fill="#d1d5db" stroke="#6b7280" stroke-width="2" rx="2"/>
  <text x="134" y="47" font-family="system-ui, sans-serif" font-size="8" fill="#374151" text-anchor="middle">520</text>

  <rect x="156" y="30" width="40" height="25" fill="#d1d5db" stroke="#6b7280" stroke-width="2" rx="2"/>
  <text x="176" y="47" font-family="system-ui, sans-serif" font-size="8" fill="#374151" text-anchor="middle">650</text>

  <!-- Fri-Sun section -->
  <text x="20" y="80" font-family="system-ui, sans-serif" font-size="11" fill="#374151" font-weight="bold">Fri-Sun: Unknown (Total: 7600)</text>

  <!-- Sunday (1 unit) -->
  <text x="55" y="105" font-family="system-ui, sans-serif" font-size="10" fill="#374151" text-anchor="end">Sun</text>
  <rect x="60" y="90" width="35" height="28" fill="#fde047" stroke="#eab308" stroke-width="2" rx="2"/>
  <text x="77" y="109" font-family="system-ui, sans-serif" font-size="9" fill="#374151" text-anchor="middle">1u</text>

  <!-- Saturday (2 units) -->
  <text x="55" y="140" font-family="system-ui, sans-serif" font-size="10" fill="#374151" text-anchor="end">Sat</text>
  <rect x="60" y="125" width="35" height="28" fill="#93c5fd" stroke="#3b82f6" stroke-width="2" rx="2"/>
  <rect x="95" y="125" width="35" height="28" fill="#93c5fd" stroke="#3b82f6" stroke-width="2" rx="2"/>
  <text x="95" y="144" font-family="system-ui, sans-serif" font-size="9" fill="#374151" text-anchor="middle">2u</text>

  <!-- Friday (4 units) -->
  <text x="160" y="105" font-family="system-ui, sans-serif" font-size="10" fill="#374151" text-anchor="end">Fri</text>
  <rect x="165" y="90" width="35" height="28" fill="#86efac" stroke="#22c55e" stroke-width="2" rx="2"/>
  <rect x="200" y="90" width="35" height="28" fill="#86efac" stroke="#22c55e" stroke-width="2" rx="2"/>
  <rect x="235" y="90" width="35" height="28" fill="#86efac" stroke="#22c55e" stroke-width="2" rx="2"/>
  <rect x="270" y="90" width="35" height="28" fill="#86efac" stroke="#22c55e" stroke-width="2" rx="2"/>
  <text x="235" y="109" font-family="system-ui, sans-serif" font-size="9" fill="#374151" text-anchor="middle">4 units = ?</text>

  <text x="320" y="105" font-family="system-ui, sans-serif" font-size="10" fill="#374151">Friday = ?</text>
</svg>