<svg xmlns="http://www.w3.org/2000/svg" width="450" height="320" viewBox="0 0 450 320">
  <style>
    text { font-family: "Times New Roman", serif; font-size: 16px; }
  </style>

  <!-- Points A, B, C -->
  <line x1="80" y1="220" x2="230" y2="160" stroke="black" stroke-width="2" />
  <line x1="230" y1="160" x2="389.73" y2="280.36" stroke="black" stroke-width="2" />

  <!-- North arrow at A -->
  <line x1="80" y1="220" x2="80" y2="110" stroke="black" stroke-width="2" />
  <polygon points="80,100 75,110 85,110" fill="black" />
  <text x="80" y="90" text-anchor="middle">North</text>

  <!-- North arrow at B -->
  <line x1="230" y1="160" x2="230" y2="50" stroke="black" stroke-width="2" />
  <polygon points="230,40 225,50 235,50" fill="black" />
  <text x="230" y="30" text-anchor="middle">North</text>

  <!-- Angle arc at A: 64째 -->
  <path d="M 80 195 A 25 25 0 0 1 103.21 210.72" fill="none" stroke="black" stroke-width="1.5" />
  <text x="104" y="198">64째</text>

  <!-- Angle arc at B: 127째 -->
  <path d="M 230 130 A 30 30 0 0 1 253.96 178.05" fill="none" stroke="black" stroke-width="1.5" />
  <text x="265" y="145">127째</text>

  <!-- Distance labels moved above the lines -->
  <text x="155" y="175" text-anchor="middle">4.83</text>
  <text x="309.86" y="205" text-anchor="middle">7.24</text>

  <!-- Point labels -->
  <text x="70" y="238">A</text>
  <text x="220" y="176">B</text>
  <text x="397" y="295">C</text>
</svg>
