<svg viewBox="0 0 500 100" xmlns="http://www.w3.org/2000/svg">
  <!-- Q12: Keyrings - throw 15 broken, sell rest at 5 for $7 -->

  <!-- Main bar showing all keyrings -->
  <text x="50" y="45" font-family="system-ui, sans-serif" font-size="12" fill="#374151" text-anchor="end">keyrings</text>

  <!-- Sets of 5 -->
  <rect x="60" y="30" width="35" height="35" fill="#60a5fa" stroke="#3b82f6" stroke-width="2" rx="2"/>
  <text x="77" y="52" font-family="system-ui, sans-serif" font-size="9" fill="#1e40af" text-anchor="middle">set 1</text>

  <rect x="95" y="30" width="35" height="35" fill="#60a5fa" stroke="#3b82f6" stroke-width="2" rx="2"/>
  <text x="112" y="52" font-family="system-ui, sans-serif" font-size="9" fill="#1e40af" text-anchor="middle">set 2</text>

  <rect x="130" y="30" width="35" height="35" fill="#60a5fa" stroke="#3b82f6" stroke-width="2" rx="2"/>
  <text x="147" y="52" font-family="system-ui, sans-serif" font-size="9" fill="#1e40af" text-anchor="middle">set 3</text>

  <!-- Ellipsis -->
  <text x="185" y="52" font-family="system-ui, sans-serif" font-size="14" fill="#6b7280">. . . . .</text>

  <!-- More sets -->
  <rect x="240" y="30" width="35" height="35" fill="#60a5fa" stroke="#3b82f6" stroke-width="2" rx="2"/>
  <text x="257" y="52" font-family="system-ui, sans-serif" font-size="8" fill="#1e40af" text-anchor="middle">set ?</text>
  <text x="257" y="62" font-family="system-ui, sans-serif" font-size="8" fill="#1e40af" text-anchor="middle">(a)</text>

  <!-- Broken keyrings (hatched) -->
  <rect x="275" y="30" width="50" height="35" fill="#fecaca" stroke="#ef4444" stroke-width="2" rx="2" stroke-dasharray="4 2"/>
  <text x="300" y="52" font-family="system-ui, sans-serif" font-size="9" fill="#dc2626" text-anchor="middle">threw</text>

  <!-- Labels -->
  <path d="M60,20 L60,12 L95,12 L95,20" fill="none" stroke="#374151" stroke-width="1"/>
  <text x="77" y="8" font-family="system-ui, sans-serif" font-size="9" fill="#374151" text-anchor="middle">5</text>

  <path d="M95,20 L95,12 L130,12 L130,20" fill="none" stroke="#374151" stroke-width="1"/>
  <text x="112" y="8" font-family="system-ui, sans-serif" font-size="9" fill="#374151" text-anchor="middle">5</text>

  <path d="M240,20 L240,12 L275,12 L275,20" fill="none" stroke="#374151" stroke-width="1"/>
  <text x="257" y="8" font-family="system-ui, sans-serif" font-size="9" fill="#374151" text-anchor="middle">5</text>

  <path d="M275,20 L275,12 L325,12 L325,20" fill="none" stroke="#374151" stroke-width="1"/>
  <text x="300" y="8" font-family="system-ui, sans-serif" font-size="9" fill="#374151" text-anchor="middle">15</text>

  <!-- Total bracket -->
  <path d="M60,70 L60,78 L325,78 L325,70" fill="none" stroke="#374151" stroke-width="1.5"/>
  <text x="192" y="92" font-family="system-ui, sans-serif" font-size="11" fill="#374151" text-anchor="middle">?</text>

  <!-- Notes -->
  <text x="340" y="40" font-family="system-ui, sans-serif" font-size="10" fill="#6b7280">$427 รท $7 = 61 sets</text>
  <text x="340" y="55" font-family="system-ui, sans-serif" font-size="10" fill="#6b7280">61 ร 5 = 305 sold</text>
  <text x="340" y="70" font-family="system-ui, sans-serif" font-size="10" fill="#6b7280">305 + 15 = 320</text>
</svg>