<svg viewBox="0 0 400 145" xmlns="http://www.w3.org/2000/svg">
  <!-- Two-step: 4/7 fiction, 3/4 of fiction are novels -->
  <text x="200" y="15" text-anchor="middle" font-size="11" fill="#374151">280 books</text>
  <path d="M 20 25 L 20 20 L 380 20 L 380 25" fill="none" stroke="#374151" stroke-width="1"/>

  <rect x="20" y="30" width="52" height="30" fill="#3B82F6" stroke="#374151" stroke-width="1"/>
  <rect x="72" y="30" width="51" height="30" fill="#3B82F6" stroke="#374151" stroke-width="1"/>
  <rect x="123" y="30" width="52" height="30" fill="#3B82F6" stroke="#374151" stroke-width="1"/>
  <rect x="175" y="30" width="51" height="30" fill="#3B82F6" stroke="#374151" stroke-width="1"/>
  <rect x="226" y="30" width="52" height="30" fill="#E5E7EB" stroke="#374151" stroke-width="1"/>
  <rect x="278" y="30" width="51" height="30" fill="#E5E7EB" stroke="#374151" stroke-width="1"/>
  <rect x="329" y="30" width="51" height="30" fill="#E5E7EB" stroke="#374151" stroke-width="1"/>

  <path d="M 20 65 L 20 70 L 226 70 L 226 65" fill="none" stroke="#3B82F6" stroke-width="1.5"/>
  <text x="123" y="82" text-anchor="middle" font-size="9" fill="#2563EB">4/7 = Fiction</text>

  <text x="123" y="97" text-anchor="middle" font-size="9" fill="#6B7280">Fiction divided into 4 parts:</text>
  <rect x="20" y="105" width="52" height="20" fill="#8B5CF6" stroke="#374151" stroke-width="1"/>
  <rect x="72" y="105" width="51" height="20" fill="#8B5CF6" stroke="#374151" stroke-width="1"/>
  <rect x="123" y="105" width="52" height="20" fill="#8B5CF6" stroke="#374151" stroke-width="1"/>
  <rect x="175" y="105" width="51" height="20" fill="#DBEAFE" stroke="#374151" stroke-width="1"/>
  <text x="98" y="119" text-anchor="middle" font-size="9" fill="white" font-weight="bold">3/4</text>
  <text x="123" y="140" text-anchor="middle" font-size="9" fill="#7C3AED">novels = ?</text>
</svg>