<svg viewBox="0 0 400 185" xmlns="http://www.w3.org/2000/svg">
  <!-- Complex: 1/3 red, 1/4 blue, 1/5 of remainder green, rest white. White - green = 24 -->
  <!-- First bar: 12 units showing initial breakdown -->
  <text x="64" y="12" text-anchor="middle" font-size="9" fill="#374151">red</text>
  <path d="M 20 20 L 20 15 L 108 15 L 108 20" fill="none" stroke="#374151" stroke-width="1"/>

  <text x="152" y="12" text-anchor="middle" font-size="9" fill="#374151">blue</text>
  <path d="M 108 20 L 108 15 L 196 15 L 196 20" fill="none" stroke="#374151" stroke-width="1"/>

  <text x="262" y="12" text-anchor="middle" font-size="9" fill="#374151">remaining</text>
  <path d="M 196 20 L 196 15 L 328 15 L 328 20" fill="none" stroke="#374151" stroke-width="1"/>

  <!-- First bar - 12 units: 4 red, 3 blue, 5 remaining -->
  <rect x="20" y="22" width="22" height="26" fill="#EF4444" stroke="#374151" stroke-width="1"/>
  <rect x="42" y="22" width="22" height="26" fill="#EF4444" stroke="#374151" stroke-width="1"/>
  <rect x="64" y="22" width="22" height="26" fill="#EF4444" stroke="#374151" stroke-width="1"/>
  <rect x="86" y="22" width="22" height="26" fill="#EF4444" stroke="#374151" stroke-width="1"/>

  <rect x="108" y="22" width="29" height="26" fill="#3B82F6" stroke="#374151" stroke-width="1"/>
  <rect x="137" y="22" width="30" height="26" fill="#3B82F6" stroke="#374151" stroke-width="1"/>
  <rect x="167" y="22" width="29" height="26" fill="#3B82F6" stroke="#374151" stroke-width="1"/>

  <rect x="196" y="22" width="26" height="26" fill="#E5E7EB" stroke="#374151" stroke-width="1"/>
  <rect x="222" y="22" width="27" height="26" fill="#E5E7EB" stroke="#374151" stroke-width="1"/>
  <rect x="249" y="22" width="26" height="26" fill="#E5E7EB" stroke="#374151" stroke-width="1"/>
  <rect x="275" y="22" width="27" height="26" fill="#E5E7EB" stroke="#374151" stroke-width="1"/>
  <rect x="302" y="22" width="26" height="26" fill="#E5E7EB" stroke="#374151" stroke-width="1"/>

  <!-- Sub-labels for green/white -->
  <text x="209" y="66" text-anchor="middle" font-size="8" fill="#059669">green</text>
  <path d="M 196 52 L 196 56 L 222 56 L 222 52" fill="none" stroke="#10B981" stroke-width="1"/>

  <text x="275" y="66" text-anchor="middle" font-size="8" fill="#6B7280">white</text>
  <path d="M 222 52 L 222 56 L 328 56 L 328 52" fill="none" stroke="#6B7280" stroke-width="1"/>

  <!-- Arrow -->
  <path d="M 174 76 L 174 90 M 169 85 L 174 90 L 179 85" fill="none" stroke="#374151" stroke-width="2"/>

  <!-- Second bar: consolidated view (12 units) -->
  <text x="64" y="103" text-anchor="middle" font-size="9" fill="#374151">red</text>
  <path d="M 20 111 L 20 106 L 108 106 L 108 111" fill="none" stroke="#374151" stroke-width="1"/>

  <text x="152" y="103" text-anchor="middle" font-size="9" fill="#374151">blue</text>
  <path d="M 108 111 L 108 106 L 196 106 L 196 111" fill="none" stroke="#374151" stroke-width="1"/>

  <text x="209" y="103" text-anchor="middle" font-size="8" fill="#059669">G</text>
  <path d="M 196 111 L 196 106 L 222 106 L 222 111" fill="none" stroke="#10B981" stroke-width="1"/>

  <text x="275" y="103" text-anchor="middle" font-size="9" fill="#6B7280">white</text>
  <path d="M 222 111 L 222 106 L 328 106 L 328 111" fill="none" stroke="#6B7280" stroke-width="1"/>

  <!-- Second bar units -->
  <rect x="20" y="113" width="22" height="26" fill="#EF4444" stroke="#374151" stroke-width="1"/>
  <rect x="42" y="113" width="22" height="26" fill="#EF4444" stroke="#374151" stroke-width="1"/>
  <rect x="64" y="113" width="22" height="26" fill="#EF4444" stroke="#374151" stroke-width="1"/>
  <rect x="86" y="113" width="22" height="26" fill="#EF4444" stroke="#374151" stroke-width="1"/>

  <rect x="108" y="113" width="29" height="26" fill="#3B82F6" stroke="#374151" stroke-width="1"/>
  <rect x="137" y="113" width="30" height="26" fill="#3B82F6" stroke="#374151" stroke-width="1"/>
  <rect x="167" y="113" width="29" height="26" fill="#3B82F6" stroke="#374151" stroke-width="1"/>

  <rect x="196" y="113" width="26" height="26" fill="#10B981" stroke="#374151" stroke-width="1"/>

  <rect x="222" y="113" width="27" height="26" fill="#F9FAFB" stroke="#374151" stroke-width="1"/>
  <rect x="249" y="113" width="26" height="26" fill="#F9FAFB" stroke="#374151" stroke-width="1"/>
  <rect x="275" y="113" width="27" height="26" fill="#F9FAFB" stroke="#374151" stroke-width="1"/>
  <rect x="302" y="113" width="26" height="26" fill="#F9FAFB" stroke="#374151" stroke-width="1"/>

  <!-- Total bracket -->
  <path d="M 20 144 L 20 149 L 328 149 L 328 144" fill="none" stroke="#374151" stroke-width="1.5"/>
  <text x="174" y="164" text-anchor="middle" font-size="10" fill="#374151">?</text>

  <!-- Key insight -->
  <text x="174" y="180" text-anchor="middle" font-size="9" fill="#D97706" font-weight="bold">4 units − 1 unit = 3 units = 24</text>
</svg>