<svg viewBox="0 0 400 185" xmlns="http://www.w3.org/2000/svg">
  <!-- Complex: 3/8 black, 5/6 of remainder white, rest purple. White - purple = 45 -->
  <!-- First bar: 24 units (LCD of 8 and 6) -->
  <text x="100" y="12" text-anchor="middle" font-size="9" fill="#374151">black</text>
  <path d="M 20 20 L 20 15 L 180 15 L 180 20" fill="none" stroke="#374151" stroke-width="1"/>

  <text x="260" y="12" text-anchor="middle" font-size="9" fill="#374151">remaining</text>
  <path d="M 180 20 L 180 15 L 340 15 L 340 20" fill="none" stroke="#374151" stroke-width="1"/>

  <!-- First bar - 24 units: 9 black, 15 remaining -->
  <rect x="20" y="22" width="18" height="26" fill="#1F2937" stroke="#374151" stroke-width="1"/>
  <rect x="38" y="22" width="17" height="26" fill="#1F2937" stroke="#374151" stroke-width="1"/>
  <rect x="55" y="22" width="18" height="26" fill="#1F2937" stroke="#374151" stroke-width="1"/>
  <rect x="73" y="22" width="17" height="26" fill="#1F2937" stroke="#374151" stroke-width="1"/>
  <rect x="90" y="22" width="18" height="26" fill="#1F2937" stroke="#374151" stroke-width="1"/>
  <rect x="108" y="22" width="17" height="26" fill="#1F2937" stroke="#374151" stroke-width="1"/>
  <rect x="125" y="22" width="18" height="26" fill="#1F2937" stroke="#374151" stroke-width="1"/>
  <rect x="143" y="22" width="18" height="26" fill="#1F2937" stroke="#374151" stroke-width="1"/>
  <rect x="161" y="22" width="19" height="26" fill="#1F2937" stroke="#374151" stroke-width="1"/>

  <rect x="180" y="22" width="11" height="26" fill="#E5E7EB" stroke="#374151" stroke-width="1"/>
  <rect x="191" y="22" width="10" height="26" fill="#E5E7EB" stroke="#374151" stroke-width="1"/>
  <rect x="201" y="22" width="11" height="26" fill="#E5E7EB" stroke="#374151" stroke-width="1"/>
  <rect x="212" y="22" width="10" height="26" fill="#E5E7EB" stroke="#374151" stroke-width="1"/>
  <rect x="222" y="22" width="11" height="26" fill="#E5E7EB" stroke="#374151" stroke-width="1"/>
  <rect x="233" y="22" width="10" height="26" fill="#E5E7EB" stroke="#374151" stroke-width="1"/>
  <rect x="243" y="22" width="11" height="26" fill="#E5E7EB" stroke="#374151" stroke-width="1"/>
  <rect x="254" y="22" width="10" height="26" fill="#E5E7EB" stroke="#374151" stroke-width="1"/>
  <rect x="264" y="22" width="11" height="26" fill="#E5E7EB" stroke="#374151" stroke-width="1"/>
  <rect x="275" y="22" width="11" height="26" fill="#E5E7EB" stroke="#374151" stroke-width="1"/>
  <rect x="286" y="22" width="10" height="26" fill="#E5E7EB" stroke="#374151" stroke-width="1"/>
  <rect x="296" y="22" width="11" height="26" fill="#E5E7EB" stroke="#374151" stroke-width="1"/>
  <rect x="307" y="22" width="11" height="26" fill="#E5E7EB" stroke="#374151" stroke-width="1"/>
  <rect x="318" y="22" width="11" height="26" fill="#E5E7EB" stroke="#374151" stroke-width="1"/>
  <rect x="329" y="22" width="11" height="26" fill="#E5E7EB" stroke="#374151" stroke-width="1"/>

  <!-- Labels for white/purple in remainder (5/6 white, 1/6 purple) -->
  <text x="247" y="66" text-anchor="middle" font-size="8" fill="#6B7280">white (5/6)</text>
  <path d="M 180 52 L 180 56 L 314 56 L 314 52" fill="none" stroke="#9CA3AF" stroke-width="1"/>

  <text x="327" y="66" text-anchor="middle" font-size="8" fill="#7C3AED">purple</text>
  <path d="M 314 52 L 314 56 L 340 56 L 340 52" fill="none" stroke="#8B5CF6" stroke-width="1"/>

  <!-- Arrow -->
  <path d="M 180 76 L 180 90 M 175 85 L 180 90 L 185 85" fill="none" stroke="#374151" stroke-width="2"/>

  <!-- Second bar: consolidated - black(9), white (12.5), purple (2.5) -->
  <rect x="20" y="113" width="18" height="26" fill="#1F2937" stroke="#374151" stroke-width="1"/>
  <rect x="38" y="113" width="17" height="26" fill="#1F2937" stroke="#374151" stroke-width="1"/>
  <rect x="55" y="113" width="18" height="26" fill="#1F2937" stroke="#374151" stroke-width="1"/>
  <rect x="73" y="113" width="17" height="26" fill="#1F2937" stroke="#374151" stroke-width="1"/>
  <rect x="90" y="113" width="18" height="26" fill="#1F2937" stroke="#374151" stroke-width="1"/>
  <rect x="108" y="113" width="17" height="26" fill="#1F2937" stroke="#374151" stroke-width="1"/>
  <rect x="125" y="113" width="18" height="26" fill="#1F2937" stroke="#374151" stroke-width="1"/>
  <rect x="143" y="113" width="18" height="26" fill="#1F2937" stroke="#374151" stroke-width="1"/>
  <rect x="161" y="113" width="19" height="26" fill="#1F2937" stroke="#374151" stroke-width="1"/>

  <!-- White: 12.5 units -->
  <rect x="180" y="113" width="11" height="26" fill="#F9FAFB" stroke="#374151" stroke-width="1"/>
  <rect x="191" y="113" width="10" height="26" fill="#F9FAFB" stroke="#374151" stroke-width="1"/>
  <rect x="201" y="113" width="11" height="26" fill="#F9FAFB" stroke="#374151" stroke-width="1"/>
  <rect x="212" y="113" width="10" height="26" fill="#F9FAFB" stroke="#374151" stroke-width="1"/>
  <rect x="222" y="113" width="11" height="26" fill="#F9FAFB" stroke="#374151" stroke-width="1"/>
  <rect x="233" y="113" width="10" height="26" fill="#F9FAFB" stroke="#374151" stroke-width="1"/>
  <rect x="243" y="113" width="11" height="26" fill="#F9FAFB" stroke="#374151" stroke-width="1"/>
  <rect x="254" y="113" width="10" height="26" fill="#F9FAFB" stroke="#374151" stroke-width="1"/>
  <rect x="264" y="113" width="11" height="26" fill="#F9FAFB" stroke="#374151" stroke-width="1"/>
  <rect x="275" y="113" width="11" height="26" fill="#F9FAFB" stroke="#374151" stroke-width="1"/>
  <rect x="286" y="113" width="10" height="26" fill="#F9FAFB" stroke="#374151" stroke-width="1"/>
  <rect x="296" y="113" width="11" height="26" fill="#F9FAFB" stroke="#374151" stroke-width="1"/>
  <rect x="307" y="113" width="6" height="26" fill="#F9FAFB" stroke="#374151" stroke-width="1"/>

  <!-- Purple: 2.5 units -->
  <rect x="313" y="113" width="5" height="26" fill="#8B5CF6" stroke="#374151" stroke-width="1"/>
  <rect x="318" y="113" width="11" height="26" fill="#8B5CF6" stroke="#374151" stroke-width="1"/>
  <rect x="329" y="113" width="11" height="26" fill="#8B5CF6" stroke="#374151" stroke-width="1"/>

  <!-- Total bracket -->
  <path d="M 20 144 L 20 149 L 340 149 L 340 144" fill="none" stroke="#374151" stroke-width="1.5"/>
  <text x="180" y="164" text-anchor="middle" font-size="10" fill="#374151">?</text>

  <!-- Key insight -->
  <text x="180" y="180" text-anchor="middle" font-size="9" fill="#059669" font-weight="bold">10 units = 45, Total = 24 × 4.5 = 108</text>
</svg>