<svg viewBox="0 0 400 185" xmlns="http://www.w3.org/2000/svg">
  <!-- Complex: 2/5 gold, 3/4 of remainder silver, rest bronze. Silver - bronze = 35 -->
  <!-- First bar: 20 units (LCD of 5 and 4) -->
  <text x="100" y="12" text-anchor="middle" font-size="9" fill="#374151">gold</text>
  <path d="M 20 20 L 20 15 L 180 15 L 180 20" fill="none" stroke="#374151" stroke-width="1"/>

  <text x="260" y="12" text-anchor="middle" font-size="9" fill="#374151">remaining</text>
  <path d="M 180 20 L 180 15 L 340 15 L 340 20" fill="none" stroke="#374151" stroke-width="1"/>

  <!-- First bar - 20 units: 8 gold, 12 remaining -->
  <rect x="20" y="22" width="20" height="26" fill="#F59E0B" stroke="#374151" stroke-width="1"/>
  <rect x="40" y="22" width="20" height="26" fill="#F59E0B" stroke="#374151" stroke-width="1"/>
  <rect x="60" y="22" width="20" height="26" fill="#F59E0B" stroke="#374151" stroke-width="1"/>
  <rect x="80" y="22" width="20" height="26" fill="#F59E0B" stroke="#374151" stroke-width="1"/>
  <rect x="100" y="22" width="20" height="26" fill="#F59E0B" stroke="#374151" stroke-width="1"/>
  <rect x="120" y="22" width="20" height="26" fill="#F59E0B" stroke="#374151" stroke-width="1"/>
  <rect x="140" y="22" width="20" height="26" fill="#F59E0B" stroke="#374151" stroke-width="1"/>
  <rect x="160" y="22" width="20" height="26" fill="#F59E0B" stroke="#374151" stroke-width="1"/>

  <rect x="180" y="22" width="13" height="26" fill="#E5E7EB" stroke="#374151" stroke-width="1"/>
  <rect x="193" y="22" width="14" height="26" fill="#E5E7EB" stroke="#374151" stroke-width="1"/>
  <rect x="207" y="22" width="13" height="26" fill="#E5E7EB" stroke="#374151" stroke-width="1"/>
  <rect x="220" y="22" width="14" height="26" fill="#E5E7EB" stroke="#374151" stroke-width="1"/>
  <rect x="234" y="22" width="13" height="26" fill="#E5E7EB" stroke="#374151" stroke-width="1"/>
  <rect x="247" y="22" width="14" height="26" fill="#E5E7EB" stroke="#374151" stroke-width="1"/>
  <rect x="261" y="22" width="13" height="26" fill="#E5E7EB" stroke="#374151" stroke-width="1"/>
  <rect x="274" y="22" width="14" height="26" fill="#E5E7EB" stroke="#374151" stroke-width="1"/>
  <rect x="288" y="22" width="13" height="26" fill="#E5E7EB" stroke="#374151" stroke-width="1"/>
  <rect x="301" y="22" width="13" height="26" fill="#E5E7EB" stroke="#374151" stroke-width="1"/>
  <rect x="314" y="22" width="13" height="26" fill="#E5E7EB" stroke="#374151" stroke-width="1"/>
  <rect x="327" y="22" width="13" height="26" fill="#E5E7EB" stroke="#374151" stroke-width="1"/>

  <!-- Arrow -->
  <path d="M 180 76 L 180 90 M 175 85 L 180 90 L 185 85" fill="none" stroke="#374151" stroke-width="2"/>

  <!-- Labels for silver/bronze -->
  <text x="235" y="66" text-anchor="middle" font-size="8" fill="#6B7280">silver (3/4)</text>
  <path d="M 180 52 L 180 56 L 288 56 L 288 52" fill="none" stroke="#9CA3AF" stroke-width="1"/>

  <text x="314" y="66" text-anchor="middle" font-size="8" fill="#92400E">bronze</text>
  <path d="M 288 52 L 288 56 L 340 56 L 340 52" fill="none" stroke="#B45309" stroke-width="1"/>

  <!-- Second bar: consolidated -->
  <text x="100" y="103" text-anchor="middle" font-size="9" fill="#F59E0B">gold</text>
  <path d="M 20 111 L 20 106 L 180 106 L 180 111" fill="none" stroke="#F59E0B" stroke-width="1"/>

  <text x="235" y="103" text-anchor="middle" font-size="9" fill="#6B7280">silver</text>
  <path d="M 180 111 L 180 106 L 288 106 L 288 111" fill="none" stroke="#9CA3AF" stroke-width="1"/>

  <text x="314" y="103" text-anchor="middle" font-size="8" fill="#92400E">Br</text>
  <path d="M 288 111 L 288 106 L 340 106 L 340 111" fill="none" stroke="#B45309" stroke-width="1"/>

  <!-- Second bar units: 8 gold, 9 silver, 3 bronze -->
  <rect x="20" y="113" width="20" height="26" fill="#F59E0B" stroke="#374151" stroke-width="1"/>
  <rect x="40" y="113" width="20" height="26" fill="#F59E0B" stroke="#374151" stroke-width="1"/>
  <rect x="60" y="113" width="20" height="26" fill="#F59E0B" stroke="#374151" stroke-width="1"/>
  <rect x="80" y="113" width="20" height="26" fill="#F59E0B" stroke="#374151" stroke-width="1"/>
  <rect x="100" y="113" width="20" height="26" fill="#F59E0B" stroke="#374151" stroke-width="1"/>
  <rect x="120" y="113" width="20" height="26" fill="#F59E0B" stroke="#374151" stroke-width="1"/>
  <rect x="140" y="113" width="20" height="26" fill="#F59E0B" stroke="#374151" stroke-width="1"/>
  <rect x="160" y="113" width="20" height="26" fill="#F59E0B" stroke="#374151" stroke-width="1"/>

  <rect x="180" y="113" width="12" height="26" fill="#D1D5DB" stroke="#374151" stroke-width="1"/>
  <rect x="192" y="113" width="12" height="26" fill="#D1D5DB" stroke="#374151" stroke-width="1"/>
  <rect x="204" y="113" width="12" height="26" fill="#D1D5DB" stroke="#374151" stroke-width="1"/>
  <rect x="216" y="113" width="12" height="26" fill="#D1D5DB" stroke="#374151" stroke-width="1"/>
  <rect x="228" y="113" width="12" height="26" fill="#D1D5DB" stroke="#374151" stroke-width="1"/>
  <rect x="240" y="113" width="12" height="26" fill="#D1D5DB" stroke="#374151" stroke-width="1"/>
  <rect x="252" y="113" width="12" height="26" fill="#D1D5DB" stroke="#374151" stroke-width="1"/>
  <rect x="264" y="113" width="12" height="26" fill="#D1D5DB" stroke="#374151" stroke-width="1"/>
  <rect x="276" y="113" width="12" height="26" fill="#D1D5DB" stroke="#374151" stroke-width="1"/>

  <rect x="288" y="113" width="18" height="26" fill="#D97706" stroke="#374151" stroke-width="1"/>
  <rect x="306" y="113" width="17" height="26" fill="#D97706" stroke="#374151" stroke-width="1"/>
  <rect x="323" y="113" width="17" height="26" fill="#D97706" stroke="#374151" stroke-width="1"/>

  <!-- Total bracket -->
  <path d="M 20 144 L 20 149 L 340 149 L 340 144" fill="none" stroke="#374151" stroke-width="1.5"/>
  <text x="180" y="164" text-anchor="middle" font-size="10" fill="#374151">?</text>

  <!-- Key insight -->
  <text x="180" y="180" text-anchor="middle" font-size="9" fill="#059669" font-weight="bold">9 units − 3 units = 6 units = 35</text>
</svg>